<?xml version="1.0" encoding="UTF-8"?>
<svg width="20px" height="20px" viewBox="0 0 20 20" version="1.1" xmlns="http://www.w3.org/2000/svg" xmlns:xlink="http://www.w3.org/1999/xlink">
    <!-- Generator: Sketch 47.1 (45422) - http://www.bohemiancoding.com/sketch -->
    <title>favorites-icon-b</title>
    <desc>Created with Sketch.</desc>
    <defs></defs>
    <g id="Page-1" stroke="none" stroke-width="1" fill="none" fill-rule="evenodd">
        <g id="favorites-icon-b" fill-rule="nonzero" fill="#60B3E1">
            <path d="M10.4998871,2 C10.2980854,2 10.1190924,2.12924862 10.0552284,2.32062348 L10.0552284,2.32062348 L8.28723752,7.62481318 L3.46876198,7.62481318 C3.26522255,7.62481318 3.08514337,7.75623404 3.0225827,7.94999837 L3.0225827,7.94999837 C2.96023924,8.14354547 3.02996833,8.35533943 3.19484178,8.47416127 L3.19484178,8.47416127 L7.07316937,11.2668004 L5.36773922,16.3828737 C5.30344074,16.5759863 5.37078036,16.7882147 5.53478491,16.9087744 L5.53478491,16.9087744 C5.61733026,16.9695972 5.71486409,17.0000087 5.81261515,17.0000087 L5.81261515,17.0000087 C5.90841119,17.0000087 6.00464168,16.9704662 6.08631811,16.911381 L6.08631811,16.911381 L10.4998871,13.7338199 L14.913456,16.911381 C14.9953497,16.9704662 15.0911457,17.0000087 15.1873762,17.0000087 L15.1873762,17.0000087 C15.28491,17.0000087 15.3824438,16.9695972 15.4649892,16.9087744 L15.4649892,16.9087744 C15.6287766,16.7882147 15.6965506,16.5759863 15.6320349,16.3828737 L15.6320349,16.3828737 L13.9266047,11.2668004 L17.8049324,8.47416127 C17.9283159,8.38553365 17.9982622,8.24498935 18,8.09901442 L18,8.09901442 L18,8.08771875 C17.9993483,8.04166714 17.9919627,7.9953983 17.9771915,7.94999837 L17.9771915,7.94999837 C17.914848,7.75623404 17.7343343,7.62481318 17.5310122,7.62481318 L17.5310122,7.62481318 L12.7127538,7.62481318 L10.944763,2.32062348 C10.880899,2.12924862 10.7016887,2 10.4998871,2 Z" id="star-blue-icon"></path>
        </g>
    </g>
</svg>