<?xml version="1.0" encoding="UTF-8"?>
<svg width="34px" height="34px" viewBox="0 0 34 34" version="1.1" xmlns="http://www.w3.org/2000/svg" xmlns:xlink="http://www.w3.org/1999/xlink">
    <!-- Generator: Sketch 47.1 (45422) - http://www.bohemiancoding.com/sketch -->
    <title>favorites-icon-large-a</title>
    <desc>Created with Sketch.</desc>
    <defs></defs>
    <g id="Page-1" stroke="none" stroke-width="1" fill="none" fill-rule="evenodd">
        <g id="favorites-icon-large-a" fill-rule="nonzero" fill="#C0C0C0">
            <path d="M16.9998494,7 C16.7307806,7 16.4921232,7.17233149 16.4069711,7.42749797 L16.4069711,7.42749797 L14.04965,14.4997509 L7.62501597,14.4997509 C7.35363006,14.4997509 7.11352449,14.6749787 7.03011026,14.9333312 L7.03011026,14.9333312 C6.94698565,15.191394 7.03995777,15.4737859 7.25978904,15.632215 L7.25978904,15.632215 L12.4308925,19.3557339 L10.1569856,26.1771649 C10.0712543,26.4346485 10.1610405,26.7176195 10.3797132,26.8783658 L10.3797132,26.8783658 C10.4897737,26.9594629 10.6198188,27.0000115 10.7501535,27.0000115 L10.7501535,27.0000115 C10.8778816,27.0000115 11.0061889,26.9606215 11.1150908,26.8818414 L11.1150908,26.8818414 L16.9998494,22.6450932 L22.884608,26.8818414 C22.9937995,26.9606215 23.1215275,27.0000115 23.2498349,27.0000115 L23.2498349,27.0000115 C23.37988,27.0000115 23.5099251,26.9594629 23.6199855,26.8783658 L23.6199855,26.8783658 C23.8383688,26.7176195 23.9287342,26.4346485 23.8427132,26.1771649 L23.8427132,26.1771649 L21.5688063,19.3557339 L26.7399098,15.632215 C26.9044212,15.5140449 26.9976829,15.3266525 27,15.1320192 L27,15.1320192 L27,15.1169583 C26.9991311,15.0555562 26.9892835,14.9938644 26.9695886,14.9333312 L26.9695886,14.9333312 C26.886464,14.6749787 26.6457791,14.4997509 26.3746829,14.4997509 L26.3746829,14.4997509 L19.9503384,14.4997509 L17.5930173,7.42749797 C17.5078653,7.17233149 17.2689182,7 16.9998494,7 Z" id="star-blue-icon"></path>
        </g>
    </g>
</svg>