<?xml version="1.0" encoding="UTF-8"?>
<svg width="50px" height="50px" viewBox="0 0 50 50" version="1.1" xmlns="http://www.w3.org/2000/svg" xmlns:xlink="http://www.w3.org/1999/xlink">
    <!-- Generator: Sketch 47 (45396) - http://www.bohemiancoding.com/sketch -->
    <title>play-icon-a</title>
    <desc>Created with Sketch.</desc>
    <defs></defs>
    <g id="Page-1" stroke="none" stroke-width="1" fill="none" fill-rule="evenodd">
        <g id="play-icon-a" fill="#FFFFFF">
            <path d="M25,41.8888889 C34.3274758,41.8888889 41.8888889,34.3274758 41.8888889,25 C41.8888889,15.6725242 34.3274758,8.11111111 25,8.11111111 C15.6725242,8.11111111 8.11111111,15.6725242 8.11111111,25 C8.11111111,34.3274758 15.6725242,41.8888889 25,41.8888889 Z M25,44 C14.5065898,44 6,35.4934102 6,25 C6,14.5065898 14.5065898,6 25,6 C35.4934102,6 44,14.5065898 44,25 C44,35.4934102 35.4934102,44 25,44 Z" id="oval" fill-rule="nonzero"></path>
            <path d="M22.5449561,30.2469957 C21.6522515,30.7067823 20.9285714,30.2629091 20.9285714,29.2593275 L20.9285714,20.7416319 C20.9285714,19.7363713 21.6491239,19.2925663 22.5449561,19.7539639 L31.1150124,24.1679625 C32.0077171,24.6277491 32.0108447,25.3715995 31.1150124,25.8329971 L22.5449561,30.2469957 L22.5449561,30.2469957 Z" id="play"></path>
        </g>
    </g>
</svg>