<?xml version="1.0" encoding="UTF-8"?>
<svg width="50px" height="50px" viewBox="0 0 50 50" version="1.1" xmlns="http://www.w3.org/2000/svg" xmlns:xlink="http://www.w3.org/1999/xlink">
    <!-- Generator: Sketch 47 (45396) - http://www.bohemiancoding.com/sketch -->
    <title>pause-icon-a</title>
    <desc>Created with Sketch.</desc>
    <defs></defs>
    <g id="Page-1" stroke="none" stroke-width="1" fill="none" fill-rule="evenodd">
        <g id="pause-icon-a" fill-rule="nonzero" fill="#FFFFFF">
            <path d="M25,41.8888889 C34.3274758,41.8888889 41.8888889,34.3274758 41.8888889,25 C41.8888889,15.6725242 34.3274758,8.11111111 25,8.11111111 C15.6725242,8.11111111 8.11111111,15.6725242 8.11111111,25 C8.11111111,34.3274758 15.6725242,41.8888889 25,41.8888889 Z M25,44 C14.5065898,44 6,35.4934102 6,25 C6,14.5065898 14.5065898,6 25,6 C35.4934102,6 44,14.5065898 44,25 C44,35.4934102 35.4934102,44 25,44 Z" id="oval"></path>
            <path d="M20.7777778,20.7777778 L20.7777778,29.2222222 C20.7777778,29.8051895 21.2503661,30.2777778 21.8333333,30.2777778 C22.4163006,30.2777778 22.8888889,29.8051895 22.8888889,29.2222222 L22.8888889,20.7777778 C22.8888889,20.1948105 22.4163006,19.7222222 21.8333333,19.7222222 C21.2503661,19.7222222 20.7777778,20.1948105 20.7777778,20.7777778 Z" id="Line"></path>
            <path d="M27.1111111,20.7777778 L27.1111111,29.2222222 C27.1111111,29.8051895 27.5836994,30.2777778 28.1666667,30.2777778 C28.7496339,30.2777778 29.2222222,29.8051895 29.2222222,29.2222222 L29.2222222,20.7777778 C29.2222222,20.1948105 28.7496339,19.7222222 28.1666667,19.7222222 C27.5836994,19.7222222 27.1111111,20.1948105 27.1111111,20.7777778 Z" id="Line"></path>
        </g>
    </g>
</svg>