<?xml version="1.0" encoding="UTF-8"?>
<svg width="50px" height="50px" viewBox="0 0 50 50" version="1.1" xmlns="http://www.w3.org/2000/svg" xmlns:xlink="http://www.w3.org/1999/xlink">
    <!-- Generator: Sketch 47 (45396) - http://www.bohemiancoding.com/sketch -->
    <title>time-steps-icon-a</title>
    <desc>Created with Sketch.</desc>
    <defs></defs>
    <g id="Page-1" stroke="none" stroke-width="1" fill="none" fill-rule="evenodd">
        <g id="time-steps-icon-a" fill-rule="nonzero" fill="#FFFFFF">
            <path d="M43.8461538,24.9230769 C43.8461538,28.9977624 42.5581469,32.7717339 40.3670789,35.8600458 L38.6522559,34.6434284 C40.6529804,31.8234059 41.7435897,28.4578481 41.7435897,24.9230769 C41.7435897,15.6337064 34.2124474,8.1025641 24.9230769,8.1025641 C15.6337064,8.1025641 8.1025641,15.6337064 8.1025641,24.9230769 C8.1025641,34.2124474 15.6337064,41.7435897 24.9230769,41.7435897 C26.5585066,41.7435897 28.1605262,41.5107578 29.6958027,41.0573656 L30.2912998,43.0738375 C28.5894626,43.5764178 26.7877577,43.8461538 24.9230769,43.8461538 C14.4724923,43.8461538 6,35.3736615 6,24.9230769 C6,14.4724923 14.4724923,6 24.9230769,6 C35.3736615,6 43.8461538,14.4724923 43.8461538,24.9230769 Z" id="oval-large"></path>
            <path d="M41.2179487,39.6410256 C41.2179487,42.8342503 38.6291221,45.4230769 35.4358974,45.4230769 C32.2426728,45.4230769 29.6538462,42.8342503 29.6538462,39.6410256 C29.6538462,36.447801 32.2426728,33.8589744 35.4358974,33.8589744 C38.6291221,33.8589744 41.2179487,36.447801 41.2179487,39.6410256 Z M42.2692308,39.6410256 C42.2692308,35.8671939 39.2097292,32.8076923 35.4358974,32.8076923 C31.6620657,32.8076923 28.6025641,35.8671939 28.6025641,39.6410256 C28.6025641,43.4148574 31.6620657,46.474359 35.4358974,46.474359 C39.2097292,46.474359 42.2692308,43.4148574 42.2692308,39.6410256 Z" id="oval-small"></path>
            <path d="M35.9615385,36.4871795 C35.9615385,36.196876 35.726201,35.9615385 35.4358974,35.9615385 C35.1455939,35.9615385 34.9102564,36.196876 34.9102564,36.4871795 L34.9102564,40.1666667 C34.9102564,40.4569702 35.1455939,40.6923077 35.4358974,40.6923077 L38.1902563,40.6923077 C38.4805598,40.6923077 38.7158973,40.4569702 38.7158973,40.1666667 C38.7158973,39.8763631 38.4805598,39.6410256 38.1902563,39.6410256 L35.9615385,39.6410256 L35.9615385,36.4871795 Z" id="lines"></path>
        </g>
    </g>
</svg>